<svg id="Layer_1" data-name="Layer 1" xmlns="http://www.w3.org/2000/svg" viewBox="0 0 2000 2000"><defs><style>.cls-1{fill:#f47c20;}</style></defs><path class="cls-1" d="M339,1291.66a11.45,11.45,0,0,0,4.79-3.68,9,9,0,0,0,1.76-5.47q0-5.82-3.63-8.79t-10.8-3H316.68v44.13H332q7,0,10.88-3.4a11.81,11.81,0,0,0,3.85-9.33,10.85,10.85,0,0,0-2.08-6.68A10.25,10.25,0,0,0,339,1291.66Zm-16.49-16.15h8.61q4.33,0,6.45,1.65c1.42,1.11,2.13,2.87,2.13,5.3a6.45,6.45,0,0,1-2.29,5.2,9.25,9.25,0,0,1-6.11,1.91H322.5Zm16,32.5a9.23,9.23,0,0,1-6.41,2.11H322.5v-15.88h9.7q8.67,0,8.67,8A7.4,7.4,0,0,1,338.52,1308Z"/><path class="cls-1" d="M384.41,1291.21a11.94,11.94,0,0,0,2.22-7.19q0-6.48-4-9.88t-11.47-3.39H356.54v44.13h5.85V1297h10.36l9.58,17.85h6.24v-.37l-10.36-18.73A13.3,13.3,0,0,0,384.41,1291.21Zm-13.08,1.06h-8.94v-16.76h8.91c3.07,0,5.42.76,7,2.21a8,8,0,0,1,2.44,6.29,7.59,7.59,0,0,1-2.56,6A10,10,0,0,1,371.33,1292.27Z"/><rect class="cls-1" x="396.45" y="1270.75" width="5.82" height="44.13"/><polygon class="cls-1" points="442.28 1304.91 420 1270.75 414.15 1270.75 414.15 1314.88 420 1314.88 420 1280.87 442.22 1314.88 448.07 1314.88 448.07 1270.75 442.28 1270.75 442.28 1304.91"/><path class="cls-1" d="M467.12,1279q3-4.11,8.86-4.11,8.81,0,10.43,8.79h5.82a15.38,15.38,0,0,0-5.15-10q-4.21-3.53-11.13-3.53-8.42,0-13.07,5.49t-4.66,15.46v3.84a25,25,0,0,0,2.35,10.83A16.82,16.82,0,0,0,467,1313a18.14,18.14,0,0,0,9.58,2.53,25.26,25.26,0,0,0,9.35-1.59,13.41,13.41,0,0,0,6.26-4.8v-16.18h-16v4.75h10.21v9.89a8.79,8.79,0,0,1-4.06,2.45,20.46,20.46,0,0,1-5.73.73,11,11,0,0,1-9.18-4.39q-3.39-4.38-3.4-11.81v-3.61Q464.1,1283.12,467.12,1279Z"/><rect class="cls-1" x="503.6" y="1270.75" width="5.82" height="44.13"/><polygon class="cls-1" points="549.42 1304.91 527.15 1270.75 521.3 1270.75 521.3 1314.88 527.15 1314.88 527.15 1280.87 549.36 1314.88 555.21 1314.88 555.21 1270.75 549.42 1270.75 549.42 1304.91"/><path class="cls-1" d="M574.26,1279q3-4.11,8.87-4.11,8.79,0,10.42,8.79h5.82a15.38,15.38,0,0,0-5.15-10q-4.22-3.53-11.12-3.53-8.43,0-13.08,5.49t-4.65,15.46v3.84a24.84,24.84,0,0,0,2.35,10.83,16.76,16.76,0,0,0,6.47,7.19,18.08,18.08,0,0,0,9.57,2.53,25.35,25.35,0,0,0,9.36-1.59,13.43,13.43,0,0,0,6.25-4.8v-16.18h-16v4.75h10.21v9.89a8.79,8.79,0,0,1-4.06,2.45,20.35,20.35,0,0,1-5.73.73,11,11,0,0,1-9.18-4.39q-3.39-4.38-3.39-11.81v-3.61Q571.25,1283.12,574.26,1279Z"/><polygon class="cls-1" points="622.08 1275.51 636.23 1275.51 636.23 1314.88 642.02 1314.88 642.02 1275.51 656.2 1275.51 656.2 1270.75 622.08 1270.75 622.08 1275.51"/><polygon class="cls-1" points="669.81 1294.48 688.94 1294.48 688.94 1289.72 669.81 1289.72 669.81 1275.51 691.73 1275.51 691.73 1270.75 663.99 1270.75 663.99 1314.88 692.03 1314.88 692.03 1310.12 669.81 1310.12 669.81 1294.48"/><path class="cls-1" d="M713.09,1270.75l-16.85,44.13h6l4.16-11.55h18.49l4.21,11.55h6l-16.88-44.13Zm-4.94,27.82,7.49-20.64,7.52,20.64Z"/><path class="cls-1" d="M749.42,1279a10.39,10.39,0,0,1,8.74-4.13,10,10,0,0,1,7.08,2.37q2.53,2.37,3.29,7.66h5.85c-.47-4.62-2.11-8.25-4.94-10.86s-6.59-3.93-11.28-3.93a17.32,17.32,0,0,0-9.33,2.5,16.4,16.4,0,0,0-6.23,7.17,25.22,25.22,0,0,0-2.2,10.82v4.24q0,9.41,4.71,15a15.57,15.57,0,0,0,12.54,5.6q7.22,0,11.56-3.8t5.17-10.81h-5.85c-.57,3.64-1.71,6.2-3.44,7.66s-4.21,2.2-7.44,2.2a9.7,9.7,0,0,1-8.4-4.25q-3-4.24-3-11.44v-4.27Q746.25,1283.15,749.42,1279Z"/><polygon class="cls-1" points="811.63 1289.72 789.38 1289.72 789.38 1270.75 783.56 1270.75 783.56 1314.88 789.38 1314.88 789.38 1294.48 811.63 1294.48 811.63 1314.88 817.48 1314.88 817.48 1270.75 811.63 1270.75 811.63 1289.72"/><polygon class="cls-1" points="834.88 1294.48 854 1294.48 854 1289.72 834.88 1289.72 834.88 1275.51 856.79 1275.51 856.79 1270.75 829.06 1270.75 829.06 1314.88 857.1 1314.88 857.1 1310.12 834.88 1310.12 834.88 1294.48"/><path class="cls-1" d="M893.42,1291.21a12,12,0,0,0,2.23-7.19q0-6.48-4-9.88t-11.47-3.39H865.55v44.13h5.85V1297h10.37l9.57,17.85h6.25v-.37l-10.37-18.73A13.3,13.3,0,0,0,893.42,1291.21Zm-13.08,1.06H871.4v-16.76h8.91c3.07,0,5.42.76,7.05,2.21a8,8,0,0,1,2.44,6.29,7.62,7.62,0,0,1-2.56,6A10.09,10.09,0,0,1,880.34,1292.27Z"/><path class="cls-1" d="M928.3,1293.46a36,36,0,0,0-8.6-3.41q-5.51-1.54-7.79-3.41a5.7,5.7,0,0,1-2.29-4.58,6.31,6.31,0,0,1,2.41-5.26,10.55,10.55,0,0,1,6.71-1.9q4.63,0,7.19,2.3a8.08,8.08,0,0,1,2.54,6.31h5.85a12.41,12.41,0,0,0-2-6.76,13.4,13.4,0,0,0-5.52-4.85,18.11,18.11,0,0,0-8.11-1.76q-6.66,0-10.83,3.41a10.68,10.68,0,0,0-4.17,8.63,10.11,10.11,0,0,0,3.41,7.74q3.4,3.13,10.9,5.29c4,1.15,6.72,2.32,8.24,3.5a6,6,0,0,1,2.27,5,6.13,6.13,0,0,1-2.45,5.13q-2.46,1.88-7.06,1.88a12.48,12.48,0,0,1-7.9-2.32,7.62,7.62,0,0,1-3-6.32h-5.85a11.7,11.7,0,0,0,2.14,6.88,14.29,14.29,0,0,0,6.08,4.77,20.73,20.73,0,0,0,8.49,1.74q7,0,11.18-3.22a10.32,10.32,0,0,0,4.18-8.6,11.06,11.06,0,0,0-1.5-5.84A13.06,13.06,0,0,0,928.3,1293.46Z"/><path class="cls-1" d="M990.42,1294.51h-5.06a18.56,18.56,0,0,1-2.06,8.76l-9.82-11.73,3.24-2.39a17.46,17.46,0,0,0,4.72-4.75,9.39,9.39,0,0,0,1.35-4.92,8.59,8.59,0,0,0-3-6.69,10.88,10.88,0,0,0-7.52-2.65,11.14,11.14,0,0,0-8.06,2.85,11.18,11.18,0,0,0-2,12.22,29.25,29.25,0,0,0,3.94,5.76q-5,3.54-6.78,6.21a10.37,10.37,0,0,0-1.77,5.85,11.4,11.4,0,0,0,3.91,9q3.91,3.42,10.36,3.42a18.77,18.77,0,0,0,6.14-1,15.28,15.28,0,0,0,5.26-3l2.94,3.49H993l-6.3-7.55Q990.42,1302.25,990.42,1294.51Zm-22.09-18.08a4.94,4.94,0,0,1,3.94-1.68,5.54,5.54,0,0,1,3.82,1.35,4.32,4.32,0,0,1,1.51,3.38,6.35,6.35,0,0,1-.75,3.19,9.63,9.63,0,0,1-2.82,2.78l-3.58,2.51c-2.38-2.91-3.58-5.33-3.58-7.27A6.28,6.28,0,0,1,968.33,1276.43Zm3.6,34.48a9,9,0,0,1-6.35-2.15,7.47,7.47,0,0,1-2.31-5.73q0-3.94,5.06-7.67l1-.73,10.76,12.88A11.78,11.78,0,0,1,971.93,1310.91Z"/><path class="cls-1" d="M1039.42,1293.46a36.12,36.12,0,0,0-8.61-3.41q-5.5-1.54-7.79-3.41a5.7,5.7,0,0,1-2.29-4.58,6.31,6.31,0,0,1,2.41-5.26,10.58,10.58,0,0,1,6.71-1.9c3.1,0,5.49.77,7.19,2.3a8,8,0,0,1,2.54,6.31h5.85a12.41,12.41,0,0,0-2-6.76,13.28,13.28,0,0,0-5.52-4.85,18.08,18.08,0,0,0-8.11-1.76q-6.66,0-10.83,3.41a10.68,10.68,0,0,0-4.17,8.63,10.11,10.11,0,0,0,3.41,7.74q3.4,3.13,10.9,5.29,6,1.72,8.24,3.5a6,6,0,0,1,2.27,5,6.1,6.1,0,0,1-2.45,5.13q-2.46,1.88-7.06,1.88a12.48,12.48,0,0,1-7.9-2.32,7.61,7.61,0,0,1-3-6.32h-5.85a11.69,11.69,0,0,0,2.13,6.88,14.29,14.29,0,0,0,6.08,4.77,20.8,20.8,0,0,0,8.49,1.74q7,0,11.18-3.22a10.32,10.32,0,0,0,4.18-8.6,11,11,0,0,0-1.5-5.84A13.1,13.1,0,0,0,1039.42,1293.46Z"/><polygon class="cls-1" points="1050.59 1275.51 1064.74 1275.51 1064.74 1314.88 1070.53 1314.88 1070.53 1275.51 1084.72 1275.51 1084.72 1270.75 1050.59 1270.75 1050.59 1275.51"/><path class="cls-1" d="M1117.72,1300.66c0,3.2-.87,5.67-2.62,7.43s-4.27,2.64-7.56,2.64-5.76-.89-7.52-2.66-2.64-4.24-2.64-7.44v-29.88h-5.76v30.06q.08,6.86,4.37,10.77t11.55,3.9l1.54-.06q6.68-.48,10.57-4.45a14.1,14.1,0,0,0,3.92-10.22v-30h-5.85Z"/><path class="cls-1" d="M1156.64,1273.29a20.14,20.14,0,0,0-10.19-2.54H1134v44.13h12.21a21.29,21.29,0,0,0,10.41-2.58,16.93,16.93,0,0,0,6.88-7.21,23.61,23.61,0,0,0,2.41-10.94v-2.82a23.53,23.53,0,0,0-2.44-10.79A17.15,17.15,0,0,0,1156.64,1273.29Zm3.51,20.72q0,7.74-3.74,11.92c-2.49,2.79-6,4.19-10.47,4.19h-6.12v-34.61h6.79q6.48.06,10,4.23t3.53,11.69Z"/><polygon class="cls-1" points="1181.77 1294.48 1200.89 1294.48 1200.89 1289.72 1181.77 1289.72 1181.77 1275.51 1203.68 1275.51 1203.68 1270.75 1175.95 1270.75 1175.95 1314.88 1203.98 1314.88 1203.98 1310.12 1181.77 1310.12 1181.77 1294.48"/><polygon class="cls-1" points="1240.6 1304.91 1218.32 1270.75 1212.47 1270.75 1212.47 1314.88 1218.32 1314.88 1218.32 1280.87 1240.54 1314.88 1246.39 1314.88 1246.39 1270.75 1240.6 1270.75 1240.6 1304.91"/><polygon class="cls-1" points="1253.45 1275.51 1267.6 1275.51 1267.6 1314.88 1273.39 1314.88 1273.39 1275.51 1287.58 1275.51 1287.58 1270.75 1253.45 1270.75 1253.45 1275.51"/><path class="cls-1" d="M1318.14,1293.46a36.2,36.2,0,0,0-8.6-3.41q-5.51-1.54-7.79-3.41a5.7,5.7,0,0,1-2.29-4.58,6.31,6.31,0,0,1,2.41-5.26,10.55,10.55,0,0,1,6.71-1.9q4.64,0,7.19,2.3a8.08,8.08,0,0,1,2.54,6.31h5.85a12.41,12.41,0,0,0-2-6.76,13.4,13.4,0,0,0-5.52-4.85,18.14,18.14,0,0,0-8.11-1.76c-4.44,0-8.06,1.14-10.83,3.41a10.68,10.68,0,0,0-4.17,8.63,10.11,10.11,0,0,0,3.41,7.74q3.4,3.13,10.89,5.29,6,1.72,8.25,3.5a6,6,0,0,1,2.27,5,6.13,6.13,0,0,1-2.45,5.13c-1.64,1.25-4,1.88-7.07,1.88a12.47,12.47,0,0,1-7.89-2.32,7.62,7.62,0,0,1-3-6.32h-5.85a11.7,11.7,0,0,0,2.14,6.88,14.29,14.29,0,0,0,6.08,4.77,20.72,20.72,0,0,0,8.48,1.74q7,0,11.19-3.22a10.32,10.32,0,0,0,4.18-8.6,11.06,11.06,0,0,0-1.5-5.84A13.06,13.06,0,0,0,1318.14,1293.46Z"/><polygon class="cls-1" points="1344.71 1275.51 1358.86 1275.51 1358.86 1314.88 1364.65 1314.88 1364.65 1275.51 1378.84 1275.51 1378.84 1270.75 1344.71 1270.75 1344.71 1275.51"/><path class="cls-1" d="M1411.31,1272.7a17.16,17.16,0,0,0-9.35-2.56,16.36,16.36,0,0,0-15.52,10.06,27.11,27.11,0,0,0-2.21,11.25v3.18a26.09,26.09,0,0,0,2.29,11,17.51,17.51,0,0,0,24.84,7.32,16.5,16.5,0,0,0,6.18-7.38,27.22,27.22,0,0,0,2.19-11.32v-2.79a27.35,27.35,0,0,0-2.19-11.32A16.45,16.45,0,0,0,1411.31,1272.7Zm2.62,22q-.09,7.66-3.18,11.78a11.2,11.2,0,0,1-17.53-.24q-3.2-4.35-3.2-12V1291q.09-7.46,3.26-11.65a10.27,10.27,0,0,1,8.68-4.2,10.39,10.39,0,0,1,8.82,4.2c2.11,2.8,3.15,6.81,3.15,12.05Z"/><path class="cls-1" d="M1437.17,1279q3-4.11,8.86-4.11,8.79,0,10.43,8.79h5.82a15.43,15.43,0,0,0-5.16-10q-4.2-3.53-11.12-3.53-8.43,0-13.08,5.49t-4.65,15.46v3.84a24.84,24.84,0,0,0,2.35,10.83,16.82,16.82,0,0,0,6.47,7.19,18.11,18.11,0,0,0,9.58,2.53,25.33,25.33,0,0,0,9.35-1.59,13.46,13.46,0,0,0,6.26-4.8v-16.18h-16v4.75h10.22v9.89a8.79,8.79,0,0,1-4.06,2.45,20.46,20.46,0,0,1-5.73.73,11,11,0,0,1-9.18-4.39q-3.4-4.38-3.4-11.81v-3.61Q1434.15,1283.12,1437.17,1279Z"/><polygon class="cls-1" points="1479.04 1294.48 1498.16 1294.48 1498.16 1289.72 1479.04 1289.72 1479.04 1275.51 1500.95 1275.51 1500.95 1270.75 1473.22 1270.75 1473.22 1314.88 1501.26 1314.88 1501.26 1310.12 1479.04 1310.12 1479.04 1294.48"/><polygon class="cls-1" points="1506.71 1275.51 1520.87 1275.51 1520.87 1314.88 1526.66 1314.88 1526.66 1275.51 1540.84 1275.51 1540.84 1270.75 1506.71 1270.75 1506.71 1275.51"/><polygon class="cls-1" points="1576.7 1289.72 1554.45 1289.72 1554.45 1270.75 1548.63 1270.75 1548.63 1314.88 1554.45 1314.88 1554.45 1294.48 1576.7 1294.48 1576.7 1314.88 1582.55 1314.88 1582.55 1270.75 1576.7 1270.75 1576.7 1289.72"/><polygon class="cls-1" points="1599.94 1294.48 1619.07 1294.48 1619.07 1289.72 1599.94 1289.72 1599.94 1275.51 1621.86 1275.51 1621.86 1270.75 1594.12 1270.75 1594.12 1314.88 1622.16 1314.88 1622.16 1310.12 1599.94 1310.12 1599.94 1294.48"/><path class="cls-1" d="M1658.49,1291.21a11.94,11.94,0,0,0,2.22-7.19q0-6.48-4-9.88t-11.47-3.39h-14.61v44.13h5.85V1297h10.36l9.58,17.85h6.24v-.37l-10.36-18.73A13.3,13.3,0,0,0,1658.49,1291.21Zm-13.08,1.06h-8.94v-16.76h8.91c3.07,0,5.42.76,7,2.21a8,8,0,0,1,2.44,6.29,7.6,7.6,0,0,1-2.57,6A10,10,0,0,1,1645.41,1292.27Z"/><path class="cls-1" d="M570,738.6H490.45V954.87H437V738.6H358.51V695.28H570Z"/><path class="cls-1" d="M701,935.26q-19.08,23.18-52.77,23.18-31,0-47.34-17.83t-16.67-52.24V762h51.53V886.73q0,30.16,27.46,30.17,26.21,0,36-18.21V762h51.71V954.87h-48.5Z"/><path class="cls-1" d="M789.45,712q0-11.6,7.75-19.08t21.13-7.49q13.2,0,21,7.49T847.22,712q0,11.76-7.94,19.25t-20.95,7.49q-13,0-21-7.49T789.45,712Zm54.74,242.83H792.48V762h51.71Z"/><path class="cls-1" d="M948.31,714.53V762h33v37.8h-33V896q0,10.69,4.1,15.33T968.1,916a82.37,82.37,0,0,0,15.16-1.25v39a106.17,106.17,0,0,1-31.21,4.64q-54.19,0-55.27-54.74V799.76H868.61V762h28.17V714.53Z"/><path class="cls-1" d="M1009.64,712q0-11.6,7.76-19.08t21.13-7.49q13.18,0,21,7.49t7.84,19.08q0,11.76-7.93,19.25t-21,7.49q-13,0-20.95-7.49T1009.64,712Zm54.74,242.83h-51.71V762h51.71Z"/><path class="cls-1" d="M1098.79,856.63q0-28.7,11.06-51.17a80.93,80.93,0,0,1,31.82-34.77q20.77-12.3,48.23-12.3,39,0,63.74,23.89t27.55,64.9l.35,13.2q0,44.39-24.78,71.23t-66.5,26.83q-41.73,0-66.6-26.74T1098.79,859Zm51.53,3.66q0,27.5,10.34,42.05t29.6,14.56q18.72,0,29.24-14.38t10.52-46q0-27-10.52-41.78t-29.6-14.82q-18.9,0-29.24,14.73T1150.32,860.29Z"/><path class="cls-1" d="M1360.71,762l1.6,22.29q20.68-25.86,55.45-25.86,30.67,0,45.65,18t15.33,53.85V954.87h-51.53V831.49q0-16.4-7.13-23.8t-23.71-7.4q-21.76,0-32.63,18.54v136h-51.53V762Z"/><path class="cls-1" d="M1622.27,901.56q0-9.45-9.36-14.88T1582.86,877Q1514,862.52,1514,818.48q0-25.68,21.31-42.88t55.71-17.21q36.74,0,58.75,17.3t22,44.93H1620.3q0-11.05-7.13-18.28t-22.28-7.22q-13,0-20.15,5.88a18.58,18.58,0,0,0-7.13,15q0,8.57,8.11,13.82t27.37,9.09a224.4,224.4,0,0,1,32.45,8.65q40.82,15,40.83,51.88,0,26.4-22.65,42.71t-58.48,16.31q-24.24,0-43.06-8.65t-29.5-23.71a55,55,0,0,1-10.7-32.54h48.85q.72,13.73,10.16,21t25.32,7.31q14.81,0,22.38-5.62A17.47,17.47,0,0,0,1622.27,901.56Z"/><path class="cls-1" d="M815.21,1111.52q0,30.68-10.84,53.77t-31,35.66q-20.18,12.55-46.28,12.56-25.83,0-46.07-12.41t-31.38-35.45q-11.13-23-11.27-53v-10.27q0-30.66,11-54t31.24-35.8q20.18-12.48,46.14-12.48t46.14,12.48q20.19,12.48,31.24,35.8t11.06,53.85Zm-43.37-9.41q0-32.67-11.69-49.64t-33.38-17q-21.54,0-33.23,16.76t-11.84,49.13v10.13q0,31.82,11.69,49.35t33.67,17.55q21.53,0,33.09-16.91t11.69-49.28Z"/><path class="cls-1" d="M887.37,1056.32l1.29,17.83q16.55-20.69,44.36-20.68,24.53,0,36.51,14.4T981.8,1111v99.7H940.58V1112q0-13.12-5.71-19t-19-5.92q-17.4,0-26.1,14.83v108.83H848.58V1056.32Z"/><path class="cls-1" d="M1062.38,1210.65H1021V991.56h41.36Z"/><path class="cls-1" d="M1101.89,1016.38a20.31,20.31,0,0,1,6.2-15.26q6.21-6,16.91-6,10.55,0,16.83,6a21.79,21.79,0,0,1-.08,30.67q-6.35,6-16.75,6t-16.76-6A20.23,20.23,0,0,1,1101.89,1016.38Zm43.79,194.27h-41.37V1056.32h41.37Z"/><path class="cls-1" d="M1223.41,1056.32l1.28,17.83q16.55-20.69,44.36-20.68,24.54,0,36.52,14.4t12.26,43.08v99.7h-41.22V1112q0-13.12-5.7-19t-19-5.92q-17.42,0-26.11,14.83v108.83h-41.22V1056.32Z"/><path class="cls-1" d="M1426,1213.51q-34,0-55.28-20.83t-21.32-55.48v-4q0-23.25,9-41.58a66,66,0,0,1,25.46-28.24q16.47-9.92,37.58-9.91,31.66,0,49.85,20t18.19,56.62v16.83h-98.28q2,15.13,12.06,24.25t25.46,9.13q23.82,0,37.22-17.26l20.26,22.68a61.91,61.91,0,0,1-25.1,20.47A82.37,82.37,0,0,1,1426,1213.51Zm-4.71-126.81q-12.27,0-19.9,8.31t-9.77,23.79h57.34v-3.3q-.29-13.76-7.42-21.28T1421.24,1086.7Z"/><path class="cls-1" d="M1626.82,993.37H1566a47.78,47.78,0,0,0-47.73,47.73v23.21h-10.89a7.53,7.53,0,0,1-7.52-7.52v-26.91a18.53,18.53,0,0,0-18.51-18.51H1123.57a5.5,5.5,0,0,0,0,11h357.79a7.52,7.52,0,0,1,7.51,7.51v26.91a18.54,18.54,0,0,0,18.52,18.52h10.89v86.38a47.78,47.78,0,0,0,47.73,47.73h60.81a47.78,47.78,0,0,0,47.73-47.73V1041.1A47.78,47.78,0,0,0,1626.82,993.37Zm-97.54,47.73a36.76,36.76,0,0,1,36.73-36.73h60.81a36.76,36.76,0,0,1,36.73,36.73v108.09H1529.28Zm97.54,157.32H1566a36.77,36.77,0,0,1-36.73-36.73v-1.5h134.27v1.5A36.77,36.77,0,0,1,1626.82,1198.42Z"/><path class="cls-1" d="M1595.48,1169.12a11.82,11.82,0,1,0,11.81,11.82A11.82,11.82,0,0,0,1595.48,1169.12Zm0,15.63a3.82,3.82,0,1,1,3.81-3.81A3.82,3.82,0,0,1,1595.48,1184.75Z"/><path class="cls-1" d="M1553.63,1057.31h85.6a5.5,5.5,0,0,0,0-11h-85.6a5.5,5.5,0,0,0,0,11Z"/><path class="cls-1" d="M1552.68,1092.88h85.6a5.5,5.5,0,0,0,0-11h-85.6a5.5,5.5,0,0,0,0,11Z"/><path class="cls-1" d="M1552.68,1126.53h85.6a5.5,5.5,0,0,0,0-11h-85.6a5.5,5.5,0,0,0,0,11Z"/><path class="cls-1" d="M594.41,1112.66a55.41,55.41,0,0,0-40.75-11c-2.3-8.39-8.31-24-22.44-32.07-10.72-6.15-23.71-6.72-38.67-1.71a82.33,82.33,0,0,0-19.76-23.37c-11.17-8.93-28.71-17.42-53.14-13.92v-2.46A33.69,33.69,0,0,0,386,994.5H350.65A22.67,22.67,0,0,1,328,971.85V743a22.68,22.68,0,0,1,22.65-22.66h20.93a5.5,5.5,0,0,0,0-11H350.65A33.7,33.7,0,0,0,317,743V971.85a33.69,33.69,0,0,0,33.65,33.65H386a22.67,22.67,0,0,1,22.65,22.65v4.76a105.49,105.49,0,0,0-10,3.29l-.38.16a81.87,81.87,0,0,0-22.78,17.33c-13.18,14.27-19.3,31.51-17.84,50.14a64.92,64.92,0,0,0-17.84,7.77c-10.68,6.81-23.3,19.94-22.75,43.81,0,.78,0,1.55.08,2.31,1.38,29.26,25.67,52.18,55.3,52.18H561.84a54.09,54.09,0,0,0,22.31-4.69c20.38-9.16,31.61-25.84,31.62-47C615.78,1139.42,608.19,1123.24,594.41,1112.66Zm-14.77,82.52a43.14,43.14,0,0,1-17.8,3.72H372.4c-23.75,0-43.21-18.32-44.32-41.7,0-.67-.05-1.35-.07-2-.81-35.76,34.89-41.36,36.39-41.58l5.51-.77-.83-5.5c-6.11-40.51,30.49-59.36,33.66-60.91,58.35-22.13,81.15,28.36,82.08,30.51l2.13,4.92,5-2c13.66-5.47,25-5.71,33.78-.72,14.88,8.49,18.3,29.63,18.34,29.83L545,1115l5.95-1.59c12.09-3.25,26.2-.2,36.81,7.94,11,8.44,17.06,21.53,17.06,36.84C604.76,1179.44,591.1,1190,579.64,1195.18Z"/></svg>